<?xml version="1.0" encoding="UTF-8" standalone="no"?>
<svg
   version="1.1"
   viewBox="0 0 991.15466 154.66667"
   xmlns:inkscape="http://www.inkscape.org/namespaces/inkscape"
   xmlns:sodipodi="http://sodipodi.sourceforge.net/DTD/sodipodi-0.dtd"
   xmlns="http://www.w3.org/2000/svg"
   xmlns:svg="http://www.w3.org/2000/svg">
  <defs id="defs6">
    <clipPath clipPathUnits="userSpaceOnUse" id="clipPath20">
      <path d="M 0,116 H 743.366 V 0 H 0 Z" id="path18" />
    </clipPath>
    <linearGradient
       x1="0"
       y1="0"
       x2="1"
       y2="0"
       gradientUnits="userSpaceOnUse"
       gradientTransform="matrix(36.175842,36.175842,36.175842,-36.175842,9.6122942,44.414459)"
       spreadMethod="pad"
       id="linearGradient54">
      <stop style="stop-opacity:1;stop-color:#ffb200" offset="0" id="stop50" />
      <stop style="stop-opacity:1;stop-color:#f80000" offset="1" id="stop52" />
    </linearGradient>
    <clipPath clipPathUnits="userSpaceOnUse" id="clipPath64">
      <path d="M 0,116 H 743.366 V 0 H 0 Z" id="path62" />
    </clipPath>
    <linearGradient
       x1="0"
       y1="0"
       x2="1"
       y2="0"
       gradientUnits="userSpaceOnUse"
       gradientTransform="matrix(63.03381,42.640514,42.640514,-63.03381,185.5611,20.001118)"
       spreadMethod="pad"
       id="linearGradient100">
      <stop style="stop-opacity:1;stop-color:#ffd400" offset="0" id="stop96" />
      <stop style="stop-opacity:1;stop-color:#ff2061" offset="1" id="stop98" />
    </linearGradient>
    <clipPath clipPathUnits="userSpaceOnUse" id="clipPath110">
      <path d="M 0,116 H 743.366 V 0 H 0 Z" id="path108" />
    </clipPath>
  </defs>
  <sodipodi:namedview
     id="namedview4"
     pagecolor="#ffffff"
     bordercolor="#000000"
     borderopacity="0.25"
     inkscape:showpageshadow="2"
     inkscape:pageopacity="0.0"
     inkscape:pagecheckerboard="0"
     inkscape:deskcolor="#d1d1d1" />
  <g
     id="g8"
     inkscape:groupmode="layer"
     inkscape:label="LOGO_EURATECHNOLOGIES_VECTO (2)"
     transform="matrix(1.3333333,0,0,-1.3333333,0,154.66667)">
    <g id="g10" transform="translate(93.8651,44.8041)">
      <path
         d="M 0,0 V -7.797 H -32.509 V 34.189 H -0.781 V 26.392 H -22.853 V 17.274 H -3.36 V 9.716 H -22.853 V 0 Z"
         style="fill:#ffffff;fill-opacity:1;fill-rule:nonzero;stroke:none"
         id="path12" />
    </g>
    <g id="g14">
      <g id="g16" clip-path="url(#clipPath20)">
        <g id="g22" transform="translate(101.8916,55.8401)">
          <path
             d="m 0,0 V 23.513 H 9.716 V 0.361 c 0,-7.977 3.48,-11.276 9.357,-11.276 5.939,0 9.358,3.299 9.358,11.276 v 23.152 h 9.596 V 0 c 0,-12.356 -7.076,-19.193 -19.012,-19.193 C 7.079,-19.193 0,-12.356 0,0"
             style="fill:#ffffff;fill-opacity:1;fill-rule:nonzero;stroke:none"
             id="path24" />
        </g>
        <g id="g26" transform="translate(167.0881,71.0737)">
          <path
             d="M 0,0 H -7.917 V -14.634 H 0 c 5.939,0 8.937,2.759 8.937,7.318 C 8.937,-2.698 5.939,0 0,0 M 9.118,-34.066 1.021,-22.37 H 0.54 -7.917 v -11.696 h -9.716 V 7.919 H 0.54 c 11.215,0 18.233,-5.819 18.233,-15.235 0,-6.297 -3.179,-10.915 -8.637,-13.254 l 9.416,-13.496 z"
             style="fill:#ffffff;fill-opacity:1;fill-rule:nonzero;stroke:none"
             id="path28" />
        </g>
        <g id="g30" transform="translate(213.9433,69.5957)">
          <path
             d="m 0,0 -13.496,-32.448 h -9.956 L -4.74,9.538 H 4.857 L 23.63,-32.448 H 13.435 Z"
             style="fill:#ffffff;fill-opacity:1;fill-rule:nonzero;stroke:none"
             id="path32" />
        </g>
        <g id="g34" transform="translate(702.7789,41.2883)">
          <path
             d="m 0,0 v -3.74 h -28.924 v 40.903 h 28.047 v -3.74 H -24.6 V 18.874 H -3.448 V 15.193 H -24.6 V 0 Z"
             style="fill:#ffffff;fill-opacity:1;fill-rule:nonzero;stroke:none"
             id="path36" />
        </g>
      </g>
    </g>
    <g id="g38">
      <g id="g40">
        <g id="g46">
          <g id="g48">
            <path
               d="M 1.508,79.691 V 65.23 h 14.46 V 50.77 h 14.46 V 36.31 h 14.46 v 43.381 z"
               style="fill:url(#linearGradient54);stroke:none"
               id="path56" />
          </g>
        </g>
      </g>
    </g>
    <g id="g58">
      <g id="g60" clip-path="url(#clipPath64)">
        <path
           d="m 1.507,36.31 h 14.46 V 50.77 H 1.507 Z"
           style="fill:#ffb200;fill-opacity:1;fill-rule:nonzero;stroke:none"
           id="path66" />
        <g id="g68" transform="translate(236.6817,70.9084)">
          <path
             d="m 0,0 h 12.529 v -34.146 h 6.599 3.085 V 0 H 35.602 V 7.89 H 0 Z"
             style="fill:#ffffff;fill-opacity:1;fill-rule:nonzero;stroke:none"
             id="path70" />
        </g>
        <g id="g72" transform="translate(290.0994,54.5331)">
          <path
             d="M 0,0 H 19.427 V 7.531 H 0 v 9.087 h 21.997 v 7.77 H -9.624 v -41.843 h 32.398 v 7.771 L 0,-9.684 Z"
             style="fill:#ffffff;fill-opacity:1;fill-rule:nonzero;stroke:none"
             id="path74" />
        </g>
        <g id="g76" transform="translate(344.0195,71.39)">
          <path
             d="m 0,0 c 4.184,0 7.711,-1.674 10.521,-4.902 l 6.216,5.739 c -3.945,4.782 -9.982,7.412 -17.215,7.412 -13.031,0 -22.715,-9.026 -22.715,-21.639 0,-12.613 9.684,-21.639 22.655,-21.639 7.293,0 13.33,2.63 17.275,7.472 l -6.216,5.739 C 7.711,-25.106 4.184,-26.78 0,-26.78 c -7.831,0 -13.39,5.5 -13.39,13.39 C -13.39,-5.5 -7.831,0 0,0"
             style="fill:#ffffff;fill-opacity:1;fill-rule:nonzero;stroke:none"
             id="path78" />
        </g>
        <g id="g80" transform="translate(398.9554,78.9215)">
          <path
             d="M 0,0 V -16.498 H -19.009 V 0 h -9.683 v -41.843 h 9.683 v 17.156 H 0 V -41.843 H 9.684 V 0 Z"
             style="fill:#ffffff;fill-opacity:1;fill-rule:nonzero;stroke:none"
             id="path82" />
        </g>
      </g>
    </g>
    <g id="g84">
      <g id="g86">
        <g id="g92">
          <g id="g94">
            <path
               d="m 211.199,39.262 c 0,-1.565 1.268,-2.834 2.834,-2.834 v 0 c 1.565,0 2.833,1.269 2.833,2.834 v 0 c 0,1.564 -1.268,2.833 -2.833,2.833 v 0 c -1.566,0 -2.834,-1.269 -2.834,-2.833"
               style="fill:url(#linearGradient100);stroke:none"
               id="path102" />
          </g>
        </g>
      </g>
    </g>
    <g id="g104">
      <g id="g106" clip-path="url(#clipPath110)">
        <g id="g112" transform="translate(459.584,78.9238)">
          <path
             d="m 0,0 v -41.848 h -4.762 l -27.133,37.494 0.042,0.064 -0.042,0.022 v -0.086 l 0.042,-37.494 h -4.182 V 0 h 6.563 L -4.183,-35.434 V 0 Z"
             style="fill:#ffffff;fill-opacity:1;fill-rule:nonzero;stroke:none"
             id="path114" />
        </g>
        <g id="g116" transform="translate(491.0891,79.639)">
          <path
             d="m 0,0 c 12.119,0 21.05,-9.102 21.05,-20.812 0,-11.71 -8.931,-20.812 -21.05,-20.812 -12.18,0 -21.11,9.161 -21.11,20.812 C -21.11,-9.161 -12.18,0 0,0 m 0,-3.917 c -9.686,0 -16.761,-7.311 -16.761,-16.895 0,-9.57 7.075,-16.896 16.761,-16.896 9.621,0 16.703,7.326 16.703,16.896 C 16.703,-11.228 9.621,-3.917 0,-3.917"
             style="fill:#ffffff;fill-opacity:1;fill-rule:nonzero;stroke:none"
             id="path118" />
        </g>
        <g id="g120" transform="translate(526.8859,41.2859)">
          <path
             d="m 0,0 26.487,33.364 h -25.924 v 3.739 H 32.033 V 33.955 L 5.649,0.597 h 26.62 V -3.143 H 0 Z"
             style="fill:#ffffff;fill-opacity:1;fill-rule:nonzero;stroke:none"
             id="path122" />
        </g>
        <path
           d="m 566.91,37.143 h 4.326 V -4.706 h -4.326 z"
           style="fill:#ffffff;fill-opacity:1;fill-rule:nonzero;stroke:none"
           id="path124" />
        <g id="g126" transform="translate(603.4874,79.639)">
          <path
             d="m 0,0 c 12.119,0 21.05,-9.102 21.05,-20.812 0,-11.71 -8.931,-20.812 -21.05,-20.812 -12.18,0 -21.109,9.161 -21.109,20.812 C -21.109,-9.161 -12.18,0 0,0 m 0,-3.917 c -9.685,0 -16.761,-7.311 -16.761,-16.895 0,-9.57 7.076,-16.896 16.761,-16.896 9.621,0 16.702,7.326 16.702,16.896 C 16.702,-11.228 9.621,-3.917 0,-3.917"
             style="fill:#ffffff;fill-opacity:1;fill-rule:nonzero;stroke:none"
             id="path128" />
        </g>
        <g id="g130" transform="translate(668.5342,78.9238)">
          <path
             d="m 0,0 v -41.848 h -4.762 l -27.133,37.494 0.042,0.064 -0.042,0.022 v -0.086 l 0.042,-37.494 h -4.183 V 0 h 6.564 L -4.183,-35.434 V 0 Z"
             style="fill:#ffffff;fill-opacity:1;fill-rule:nonzero;stroke:none"
             id="path132" />
        </g>
        <g id="g134" transform="translate(716.3304,44.3857)">
          <path
             d="m 0,0 1.691,3.322 c 2.979,-2.919 8.299,-5.074 13.796,-5.074 7.838,0 11.278,3.292 11.278,7.429 0,11.51 -25.751,4.437 -25.751,19.951 0,6.178 4.8,11.509 15.487,11.509 4.734,0 9.645,-1.394 13.004,-3.741 l -1.453,-3.438 c -3.598,2.347 -7.777,3.5 -11.551,3.5 -7.661,0 -11.099,-3.406 -11.099,-7.602 0,-11.508 25.748,-4.557 25.748,-19.833 0,-6.177 -4.917,-11.448 -15.662,-11.448 C 9.29,-5.425 3.141,-3.205 0,0"
             style="fill:#ffffff;fill-opacity:1;fill-rule:nonzero;stroke:none"
             id="path136" />
        </g>
      </g>
    </g>
  </g>
</svg>
