<svg
  xmlns="http://www.w3.org/2000/svg"
  width="3384"
  height="573"
  viewBox="0 0 1128 191"
  style="background-color: #10182b; font-family: 'Geist', 'Satoshi', 'Inter', system-ui, sans-serif;"
>
  <defs>
    <filter id="noise">
      <feTurbulence type="fractalNoise" baseFrequency="0.64" numOctaves="3" stitchTiles="stitch" />
      <feColorMatrix type="matrix" values="1 0 0 0 0, 0 1 0 0 0, 0 0 1 0 0, 0 0 0 0.035 0" />
    </filter>
    <radialGradient id="navyGlow" cx="78%" cy="44%" r="54%">
      <stop offset="0%" stop-color="#3459A8" stop-opacity="0.34" />
      <stop offset="100%" stop-color="#10182b" stop-opacity="0" />
    </radialGradient>
    <radialGradient id="navyGlowSoft" cx="22%" cy="15%" r="65%">
      <stop offset="0%" stop-color="#243e78" stop-opacity="0.42" />
      <stop offset="100%" stop-color="#10182b" stop-opacity="0" />
    </radialGradient>
    <radialGradient id="amberAccent" cx="94%" cy="94%" r="45%">
      <stop offset="0%" stop-color="#b88a2f" stop-opacity="0.26" />
      <stop offset="100%" stop-color="#10182b" stop-opacity="0" />
    </radialGradient>
    <linearGradient id="headlineGrad" x1="0%" y1="0%" x2="100%" y2="0%">
      <stop offset="0%" stop-color="#ffffff" />
      <stop offset="100%" stop-color="#d2dcf2" />
    </linearGradient>
  </defs>

  <rect width="100%" height="100%" fill="#10182b" />
  <rect width="100%" height="100%" fill="url(#navyGlowSoft)" />
  <rect width="100%" height="100%" fill="url(#navyGlow)" />
  <rect width="100%" height="100%" fill="url(#amberAccent)" />

  <g stroke="#ffffff" stroke-opacity="0.06" stroke-width="1">
    <line x1="90" y1="0" x2="90" y2="191" />
    <line x1="255" y1="0" x2="255" y2="191" />
    <line x1="870" y1="0" x2="870" y2="191" />
    <line x1="1038" y1="0" x2="1038" y2="191" />
    <line x1="0" y1="58" x2="1128" y2="58" />
    <line x1="0" y1="142" x2="1128" y2="142" />
  </g>

  <g transform="translate(790, -52) scale(4.2)" opacity="0.05">
    <g fill="none" stroke="#ffffff">
      <rect x="10" y="10" width="44" height="44" transform="rotate(45 32 32)" stroke-width="1.1" />
      <line x1="22" y1="18" x2="22" y2="46" stroke-width="1.65" stroke-linecap="square" />
      <path d="M22 18H36C42 18 46 22 46 28C46 34 42 38 36 38H22" stroke-width="1.65" stroke-linecap="square" stroke-linejoin="miter" />
    </g>
  </g>

  <rect width="100%" height="100%" filter="url(#noise)" opacity="0.8" pointer-events="none" />

  <g transform="translate(336, 73)">
    <text x="0" y="0" fill="url(#headlineGrad)" font-size="33" font-weight="800" letter-spacing="-0.03em">
      Prédire votre capacité,
    </text>
    <text x="0" y="36" fill="#ffffff" font-size="33" font-weight="800" letter-spacing="-0.03em">
      Optimiser vos décisions,
    </text>
    <text x="0" y="72" fill="#dcb56a" font-size="33" font-weight="800" letter-spacing="-0.03em">
      Prouver le ROI.
    </text>
    <text x="0" y="95" fill="#c5d2ef" font-size="14" font-weight="500" letter-spacing="-0.005em">
      Intelligence de couverture multi-sites · Decision Log · Proof Pack
    </text>
  </g>

  <g transform="translate(762, 22)">
    <rect x="0" y="0" width="332" height="44" rx="22" fill="rgba(16, 24, 43, 0.35)" stroke="rgba(184, 138, 47, 0.42)" stroke-width="1" />
    <rect x="1" y="1" width="330" height="42" rx="21" fill="none" stroke="rgba(255, 255, 255, 0.1)" stroke-width="0.8" />
    <g transform="translate(26, 27)">
      <circle cx="0" cy="-5" r="4" fill="#b88a2f" />
      <text x="14" y="0" fill="#f8fbff" font-size="14" font-weight="600" letter-spacing="0em">
        Praedixa.com · Audit historique gratuit
      </text>
    </g>
  </g>
</svg>
